<mxfile host="app.diagrams.net" modified="2024-02-01T03:27:55.948Z" agent="Mozilla/5.0 (Macintosh; Intel Mac OS X 10_15_7) AppleWebKit/537.36 (KHTML, like Gecko) Chrome/120.0.0.0 Safari/537.36" etag="v8y9ejSXc8U3apk5rWhm" version="23.1.0" type="github">
  <diagram id="V__X8e-ZMnkZyYqIvxA_" name="第 1 页">
    <mxGraphModel dx="2723" dy="1402" grid="1" gridSize="10" guides="1" tooltips="1" connect="1" arrows="1" fold="1" page="1" pageScale="1" pageWidth="827" pageHeight="1169" math="0" shadow="0">
      <root>
        <mxCell id="0" />
        <mxCell id="1" parent="0" />
        <mxCell id="-g2-h8CjWS85-cmmGlt7-77" style="edgeStyle=orthogonalEdgeStyle;rounded=0;orthogonalLoop=1;jettySize=auto;html=1;" edge="1" parent="1" source="GsMayDk0nDa4LUjeAOZ0-1" target="GsMayDk0nDa4LUjeAOZ0-11">
          <mxGeometry relative="1" as="geometry" />
        </mxCell>
        <mxCell id="-g2-h8CjWS85-cmmGlt7-79" style="edgeStyle=orthogonalEdgeStyle;rounded=0;orthogonalLoop=1;jettySize=auto;html=1;" edge="1" parent="1" source="GsMayDk0nDa4LUjeAOZ0-1" target="yzbpx14aAJEQ57A10Xds-4">
          <mxGeometry relative="1" as="geometry" />
        </mxCell>
        <mxCell id="GsMayDk0nDa4LUjeAOZ0-1" value="断电" style="rounded=1;whiteSpace=wrap;html=1;fillColor=#d5e8d4;strokeColor=#82b366;" parent="1" vertex="1">
          <mxGeometry x="520" y="540" width="120" height="60" as="geometry" />
        </mxCell>
        <mxCell id="-g2-h8CjWS85-cmmGlt7-53" style="edgeStyle=orthogonalEdgeStyle;rounded=0;orthogonalLoop=1;jettySize=auto;html=1;" edge="1" parent="1" source="GsMayDk0nDa4LUjeAOZ0-9" target="Jr9y1pZiiyUqSEXO3oHp-5">
          <mxGeometry relative="1" as="geometry">
            <Array as="points">
              <mxPoint x="-320" y="710" />
              <mxPoint x="-320" y="610" />
            </Array>
          </mxGeometry>
        </mxCell>
        <mxCell id="-g2-h8CjWS85-cmmGlt7-54" style="edgeStyle=orthogonalEdgeStyle;rounded=0;orthogonalLoop=1;jettySize=auto;html=1;" edge="1" parent="1" source="GsMayDk0nDa4LUjeAOZ0-9" target="GsMayDk0nDa4LUjeAOZ0-53">
          <mxGeometry relative="1" as="geometry" />
        </mxCell>
        <mxCell id="-g2-h8CjWS85-cmmGlt7-56" style="edgeStyle=orthogonalEdgeStyle;rounded=0;orthogonalLoop=1;jettySize=auto;html=1;" edge="1" parent="1" source="GsMayDk0nDa4LUjeAOZ0-9" target="GsMayDk0nDa4LUjeAOZ0-15">
          <mxGeometry relative="1" as="geometry">
            <Array as="points">
              <mxPoint x="-320" y="710" />
              <mxPoint x="-320" y="810" />
            </Array>
          </mxGeometry>
        </mxCell>
        <mxCell id="-g2-h8CjWS85-cmmGlt7-57" style="edgeStyle=orthogonalEdgeStyle;rounded=0;orthogonalLoop=1;jettySize=auto;html=1;" edge="1" parent="1" source="GsMayDk0nDa4LUjeAOZ0-9" target="gy6kIXA5xTHW6ZrrGZsn-22">
          <mxGeometry relative="1" as="geometry">
            <Array as="points">
              <mxPoint x="-320" y="710" />
              <mxPoint x="-320" y="910" />
            </Array>
          </mxGeometry>
        </mxCell>
        <mxCell id="-g2-h8CjWS85-cmmGlt7-58" style="edgeStyle=orthogonalEdgeStyle;rounded=0;orthogonalLoop=1;jettySize=auto;html=1;" edge="1" parent="1" source="GsMayDk0nDa4LUjeAOZ0-9" target="GsMayDk0nDa4LUjeAOZ0-32">
          <mxGeometry relative="1" as="geometry">
            <Array as="points">
              <mxPoint x="-320" y="710" />
              <mxPoint x="-320" y="1010" />
            </Array>
          </mxGeometry>
        </mxCell>
        <mxCell id="GsMayDk0nDa4LUjeAOZ0-9" value="带usb公牛" style="whiteSpace=wrap;html=1;rounded=1;fillColor=#e1d5e7;strokeColor=#9673a6;" parent="1" vertex="1">
          <mxGeometry x="-280" y="680" width="120" height="60" as="geometry" />
        </mxCell>
        <mxCell id="-g2-h8CjWS85-cmmGlt7-81" style="edgeStyle=orthogonalEdgeStyle;rounded=0;orthogonalLoop=1;jettySize=auto;html=1;" edge="1" parent="1" source="GsMayDk0nDa4LUjeAOZ0-11" target="GsMayDk0nDa4LUjeAOZ0-20">
          <mxGeometry relative="1" as="geometry" />
        </mxCell>
        <mxCell id="-g2-h8CjWS85-cmmGlt7-82" style="edgeStyle=orthogonalEdgeStyle;rounded=0;orthogonalLoop=1;jettySize=auto;html=1;" edge="1" parent="1" source="GsMayDk0nDa4LUjeAOZ0-11" target="GsMayDk0nDa4LUjeAOZ0-49">
          <mxGeometry relative="1" as="geometry" />
        </mxCell>
        <mxCell id="GsMayDk0nDa4LUjeAOZ0-11" value="杂牌" style="whiteSpace=wrap;html=1;rounded=1;fillColor=#e1d5e7;strokeColor=#9673a6;" parent="1" vertex="1">
          <mxGeometry x="414" y="370" width="120" height="60" as="geometry" />
        </mxCell>
        <mxCell id="gy6kIXA5xTHW6ZrrGZsn-1" style="edgeStyle=orthogonalEdgeStyle;rounded=0;orthogonalLoop=1;jettySize=auto;html=1;entryX=0.5;entryY=0;entryDx=0;entryDy=0;" parent="1" source="GsMayDk0nDa4LUjeAOZ0-13" target="GsMayDk0nDa4LUjeAOZ0-45" edge="1">
          <mxGeometry relative="1" as="geometry" />
        </mxCell>
        <mxCell id="GsMayDk0nDa4LUjeAOZ0-13" value="小米" style="whiteSpace=wrap;html=1;rounded=1;" parent="1" vertex="1">
          <mxGeometry x="-220" y="20" width="120" height="60" as="geometry" />
        </mxCell>
        <mxCell id="GsMayDk0nDa4LUjeAOZ0-15" value="小屏幕" style="whiteSpace=wrap;html=1;rounded=1;strokeColor=#007FFF;" parent="1" vertex="1">
          <mxGeometry x="-480" y="780" width="120" height="60" as="geometry" />
        </mxCell>
        <mxCell id="GsMayDk0nDa4LUjeAOZ0-32" value="USB&amp;nbsp;Hub" style="whiteSpace=wrap;html=1;rounded=1;strokeColor=#007FFF;" parent="1" vertex="1">
          <mxGeometry x="-480" y="980" width="120" height="60" as="geometry" />
        </mxCell>
        <mxCell id="-g2-h8CjWS85-cmmGlt7-32" style="edgeStyle=orthogonalEdgeStyle;rounded=0;orthogonalLoop=1;jettySize=auto;html=1;fillColor=#dae8fc;strokeColor=#6c8ebf;" edge="1" parent="1" source="GsMayDk0nDa4LUjeAOZ0-37" target="saun846QMrdfV_qcI3-O-2">
          <mxGeometry relative="1" as="geometry">
            <Array as="points">
              <mxPoint x="1320" y="750" />
              <mxPoint x="1320" y="1130" />
            </Array>
          </mxGeometry>
        </mxCell>
        <mxCell id="GsMayDk0nDa4LUjeAOZ0-37" value="硬盘柜" style="whiteSpace=wrap;html=1;rounded=1;strokeColor=#FF9933;" parent="1" vertex="1">
          <mxGeometry x="1150" y="720" width="120" height="60" as="geometry" />
        </mxCell>
        <mxCell id="GsMayDk0nDa4LUjeAOZ0-45" value="风扇" style="whiteSpace=wrap;html=1;rounded=1;strokeColor=#FF9933;" parent="1" vertex="1">
          <mxGeometry x="-220" y="130" width="120" height="60" as="geometry" />
        </mxCell>
        <mxCell id="GsMayDk0nDa4LUjeAOZ0-49" value="清洁机" style="whiteSpace=wrap;html=1;rounded=1;strokeColor=#FF9933;" parent="1" vertex="1">
          <mxGeometry x="500" y="270" width="120" height="60" as="geometry" />
        </mxCell>
        <mxCell id="GsMayDk0nDa4LUjeAOZ0-51" value="戴森充电器" style="whiteSpace=wrap;html=1;rounded=1;strokeColor=#FF9933;" parent="1" vertex="1">
          <mxGeometry x="-74" y="130" width="120" height="60" as="geometry" />
        </mxCell>
        <mxCell id="GsMayDk0nDa4LUjeAOZ0-53" value="台灯（ipad充电器）" style="whiteSpace=wrap;html=1;rounded=1;strokeColor=#007FFF;" parent="1" vertex="1">
          <mxGeometry x="-480" y="680" width="120" height="60" as="geometry" />
        </mxCell>
        <mxCell id="Jr9y1pZiiyUqSEXO3oHp-11" value="" style="edgeStyle=orthogonalEdgeStyle;rounded=0;orthogonalLoop=1;jettySize=auto;html=1;fontSize=12;" parent="1" source="Jr9y1pZiiyUqSEXO3oHp-3" target="Jr9y1pZiiyUqSEXO3oHp-10" edge="1">
          <mxGeometry relative="1" as="geometry">
            <mxPoint x="1920" y="190" as="sourcePoint" />
            <Array as="points">
              <mxPoint x="1920" y="260" />
              <mxPoint x="1920" y="100" />
            </Array>
          </mxGeometry>
        </mxCell>
        <mxCell id="Jr9y1pZiiyUqSEXO3oHp-16" value="" style="edgeStyle=orthogonalEdgeStyle;rounded=0;orthogonalLoop=1;jettySize=auto;html=1;fontSize=12;" parent="1" source="Jr9y1pZiiyUqSEXO3oHp-3" target="Jr9y1pZiiyUqSEXO3oHp-15" edge="1">
          <mxGeometry relative="1" as="geometry">
            <Array as="points">
              <mxPoint x="1920" y="260" />
              <mxPoint x="1920" y="180" />
            </Array>
          </mxGeometry>
        </mxCell>
        <mxCell id="Jr9y1pZiiyUqSEXO3oHp-18" value="" style="edgeStyle=orthogonalEdgeStyle;rounded=0;orthogonalLoop=1;jettySize=auto;html=1;fontSize=12;" parent="1" source="Jr9y1pZiiyUqSEXO3oHp-3" target="Jr9y1pZiiyUqSEXO3oHp-17" edge="1">
          <mxGeometry relative="1" as="geometry">
            <Array as="points">
              <mxPoint x="1890" y="260" />
              <mxPoint x="1890" y="260" />
            </Array>
          </mxGeometry>
        </mxCell>
        <mxCell id="Jr9y1pZiiyUqSEXO3oHp-20" value="" style="edgeStyle=orthogonalEdgeStyle;rounded=0;orthogonalLoop=1;jettySize=auto;html=1;fontSize=12;" parent="1" source="Jr9y1pZiiyUqSEXO3oHp-3" target="Jr9y1pZiiyUqSEXO3oHp-19" edge="1">
          <mxGeometry relative="1" as="geometry">
            <Array as="points">
              <mxPoint x="1920" y="260" />
              <mxPoint x="1920" y="340" />
            </Array>
          </mxGeometry>
        </mxCell>
        <mxCell id="Jr9y1pZiiyUqSEXO3oHp-22" value="" style="edgeStyle=orthogonalEdgeStyle;rounded=0;orthogonalLoop=1;jettySize=auto;html=1;fontSize=12;" parent="1" source="Jr9y1pZiiyUqSEXO3oHp-3" target="Jr9y1pZiiyUqSEXO3oHp-21" edge="1">
          <mxGeometry relative="1" as="geometry">
            <Array as="points">
              <mxPoint x="1920" y="260" />
              <mxPoint x="1920" y="420" />
            </Array>
          </mxGeometry>
        </mxCell>
        <mxCell id="Jr9y1pZiiyUqSEXO3oHp-3" value="PC" style="rounded=1;whiteSpace=wrap;html=1;fontSize=12;fillColor=default;" parent="1" vertex="1">
          <mxGeometry x="1760" y="230" width="120" height="60" as="geometry" />
        </mxCell>
        <mxCell id="Jr9y1pZiiyUqSEXO3oHp-5" value="桌底灯" style="rounded=1;whiteSpace=wrap;html=1;fontSize=12;fillColor=default;strokeColor=#007FFF;" parent="1" vertex="1">
          <mxGeometry x="-480" y="580" width="120" height="60" as="geometry" />
        </mxCell>
        <mxCell id="Jr9y1pZiiyUqSEXO3oHp-10" value="DP" style="whiteSpace=wrap;html=1;rounded=1;" parent="1" vertex="1">
          <mxGeometry x="1960" y="70" width="120" height="60" as="geometry" />
        </mxCell>
        <mxCell id="Jr9y1pZiiyUqSEXO3oHp-15" value="DP" style="whiteSpace=wrap;html=1;rounded=1;" parent="1" vertex="1">
          <mxGeometry x="1960" y="150" width="120" height="60" as="geometry" />
        </mxCell>
        <mxCell id="Jr9y1pZiiyUqSEXO3oHp-17" value="HDMI" style="whiteSpace=wrap;html=1;rounded=1;" parent="1" vertex="1">
          <mxGeometry x="1960" y="230" width="120" height="60" as="geometry" />
        </mxCell>
        <mxCell id="Jr9y1pZiiyUqSEXO3oHp-24" value="" style="edgeStyle=orthogonalEdgeStyle;rounded=0;orthogonalLoop=1;jettySize=auto;html=1;fontSize=12;" parent="1" source="Jr9y1pZiiyUqSEXO3oHp-19" target="Jr9y1pZiiyUqSEXO3oHp-23" edge="1">
          <mxGeometry relative="1" as="geometry" />
        </mxCell>
        <mxCell id="Jr9y1pZiiyUqSEXO3oHp-26" value="" style="edgeStyle=orthogonalEdgeStyle;rounded=0;orthogonalLoop=1;jettySize=auto;html=1;fontSize=12;" parent="1" source="Jr9y1pZiiyUqSEXO3oHp-19" target="Jr9y1pZiiyUqSEXO3oHp-25" edge="1">
          <mxGeometry relative="1" as="geometry">
            <Array as="points">
              <mxPoint x="2120" y="340" />
              <mxPoint x="2120" y="500" />
            </Array>
          </mxGeometry>
        </mxCell>
        <mxCell id="Jr9y1pZiiyUqSEXO3oHp-28" value="" style="edgeStyle=orthogonalEdgeStyle;rounded=0;orthogonalLoop=1;jettySize=auto;html=1;fontSize=12;" parent="1" source="Jr9y1pZiiyUqSEXO3oHp-19" target="Jr9y1pZiiyUqSEXO3oHp-27" edge="1">
          <mxGeometry relative="1" as="geometry">
            <Array as="points">
              <mxPoint x="2120" y="340" />
              <mxPoint x="2120" y="260" />
            </Array>
          </mxGeometry>
        </mxCell>
        <mxCell id="Jr9y1pZiiyUqSEXO3oHp-30" value="" style="edgeStyle=orthogonalEdgeStyle;rounded=0;orthogonalLoop=1;jettySize=auto;html=1;fontSize=12;" parent="1" source="Jr9y1pZiiyUqSEXO3oHp-19" target="Jr9y1pZiiyUqSEXO3oHp-29" edge="1">
          <mxGeometry relative="1" as="geometry">
            <Array as="points">
              <mxPoint x="2120" y="340" />
              <mxPoint x="2120" y="180" />
            </Array>
          </mxGeometry>
        </mxCell>
        <mxCell id="Jr9y1pZiiyUqSEXO3oHp-32" value="" style="edgeStyle=orthogonalEdgeStyle;rounded=0;orthogonalLoop=1;jettySize=auto;html=1;fontSize=12;" parent="1" source="Jr9y1pZiiyUqSEXO3oHp-19" target="Jr9y1pZiiyUqSEXO3oHp-31" edge="1">
          <mxGeometry relative="1" as="geometry">
            <Array as="points">
              <mxPoint x="2120" y="340" />
              <mxPoint x="2120" y="100" />
            </Array>
          </mxGeometry>
        </mxCell>
        <mxCell id="Jr9y1pZiiyUqSEXO3oHp-34" value="" style="edgeStyle=orthogonalEdgeStyle;rounded=0;orthogonalLoop=1;jettySize=auto;html=1;fontSize=12;" parent="1" source="Jr9y1pZiiyUqSEXO3oHp-19" target="Jr9y1pZiiyUqSEXO3oHp-33" edge="1">
          <mxGeometry relative="1" as="geometry">
            <Array as="points">
              <mxPoint x="2120" y="340" />
              <mxPoint x="2120" y="580" />
            </Array>
          </mxGeometry>
        </mxCell>
        <mxCell id="Jr9y1pZiiyUqSEXO3oHp-36" value="" style="edgeStyle=orthogonalEdgeStyle;rounded=0;orthogonalLoop=1;jettySize=auto;html=1;fontSize=12;" parent="1" source="Jr9y1pZiiyUqSEXO3oHp-19" target="Jr9y1pZiiyUqSEXO3oHp-35" edge="1">
          <mxGeometry relative="1" as="geometry">
            <Array as="points">
              <mxPoint x="2120" y="340" />
              <mxPoint x="2120" y="660" />
            </Array>
          </mxGeometry>
        </mxCell>
        <mxCell id="Jr9y1pZiiyUqSEXO3oHp-38" value="" style="edgeStyle=orthogonalEdgeStyle;rounded=0;orthogonalLoop=1;jettySize=auto;html=1;fontSize=12;" parent="1" source="Jr9y1pZiiyUqSEXO3oHp-19" target="Jr9y1pZiiyUqSEXO3oHp-37" edge="1">
          <mxGeometry relative="1" as="geometry">
            <Array as="points">
              <mxPoint x="2120" y="340" />
              <mxPoint x="2120" y="740" />
            </Array>
          </mxGeometry>
        </mxCell>
        <mxCell id="Jr9y1pZiiyUqSEXO3oHp-40" value="" style="edgeStyle=orthogonalEdgeStyle;rounded=0;orthogonalLoop=1;jettySize=auto;html=1;fontSize=12;" parent="1" source="Jr9y1pZiiyUqSEXO3oHp-19" target="Jr9y1pZiiyUqSEXO3oHp-39" edge="1">
          <mxGeometry relative="1" as="geometry">
            <Array as="points">
              <mxPoint x="2120" y="340" />
              <mxPoint x="2120" y="820" />
            </Array>
          </mxGeometry>
        </mxCell>
        <mxCell id="Jr9y1pZiiyUqSEXO3oHp-42" value="" style="edgeStyle=orthogonalEdgeStyle;rounded=0;orthogonalLoop=1;jettySize=auto;html=1;fontSize=12;" parent="1" source="Jr9y1pZiiyUqSEXO3oHp-19" target="Jr9y1pZiiyUqSEXO3oHp-41" edge="1">
          <mxGeometry relative="1" as="geometry">
            <Array as="points">
              <mxPoint x="2120" y="340" />
              <mxPoint x="2120" y="900" />
            </Array>
          </mxGeometry>
        </mxCell>
        <mxCell id="Jr9y1pZiiyUqSEXO3oHp-44" value="" style="edgeStyle=orthogonalEdgeStyle;rounded=0;orthogonalLoop=1;jettySize=auto;html=1;fontSize=12;" parent="1" source="Jr9y1pZiiyUqSEXO3oHp-19" target="Jr9y1pZiiyUqSEXO3oHp-43" edge="1">
          <mxGeometry relative="1" as="geometry">
            <Array as="points">
              <mxPoint x="2120" y="340" />
              <mxPoint x="2120" y="420" />
            </Array>
          </mxGeometry>
        </mxCell>
        <mxCell id="Jr9y1pZiiyUqSEXO3oHp-19" value="USB&amp;nbsp;x 4" style="whiteSpace=wrap;html=1;rounded=1;" parent="1" vertex="1">
          <mxGeometry x="1960" y="310" width="120" height="60" as="geometry" />
        </mxCell>
        <mxCell id="Jr9y1pZiiyUqSEXO3oHp-21" value="以太网接口" style="whiteSpace=wrap;html=1;rounded=1;" parent="1" vertex="1">
          <mxGeometry x="1960" y="390" width="120" height="60" as="geometry" />
        </mxCell>
        <mxCell id="Jr9y1pZiiyUqSEXO3oHp-23" value="红&amp;nbsp;type-c" style="whiteSpace=wrap;html=1;rounded=1;fillColor=#dae8fc;strokeColor=#6c8ebf;" parent="1" vertex="1">
          <mxGeometry x="2160" y="310" width="120" height="60" as="geometry" />
        </mxCell>
        <mxCell id="Jr9y1pZiiyUqSEXO3oHp-25" value="任天堂&amp;nbsp;type-c" style="whiteSpace=wrap;html=1;rounded=1;" parent="1" vertex="1">
          <mxGeometry x="2160" y="470" width="120" height="60" as="geometry" />
        </mxCell>
        <mxCell id="Jr9y1pZiiyUqSEXO3oHp-27" value="mirco-usb" style="whiteSpace=wrap;html=1;rounded=1;" parent="1" vertex="1">
          <mxGeometry x="2160" y="230" width="120" height="60" as="geometry" />
        </mxCell>
        <mxCell id="Jr9y1pZiiyUqSEXO3oHp-29" value="白&amp;nbsp;type-c" style="whiteSpace=wrap;html=1;rounded=1;" parent="1" vertex="1">
          <mxGeometry x="2160" y="150" width="120" height="60" as="geometry" />
        </mxCell>
        <mxCell id="Jr9y1pZiiyUqSEXO3oHp-31" value="指纹" style="whiteSpace=wrap;html=1;rounded=1;" parent="1" vertex="1">
          <mxGeometry x="2160" y="70" width="120" height="60" as="geometry" />
        </mxCell>
        <mxCell id="Jr9y1pZiiyUqSEXO3oHp-33" value="鼠标" style="whiteSpace=wrap;html=1;rounded=1;" parent="1" vertex="1">
          <mxGeometry x="2160" y="550" width="120" height="60" as="geometry" />
        </mxCell>
        <mxCell id="Jr9y1pZiiyUqSEXO3oHp-35" value="键盘" style="whiteSpace=wrap;html=1;rounded=1;" parent="1" vertex="1">
          <mxGeometry x="2160" y="630" width="120" height="60" as="geometry" />
        </mxCell>
        <mxCell id="Jr9y1pZiiyUqSEXO3oHp-37" value="cd&amp;nbsp;机" style="whiteSpace=wrap;html=1;rounded=1;" parent="1" vertex="1">
          <mxGeometry x="2160" y="710" width="120" height="60" as="geometry" />
        </mxCell>
        <mxCell id="Jr9y1pZiiyUqSEXO3oHp-39" value="麦克风" style="whiteSpace=wrap;html=1;rounded=1;" parent="1" vertex="1">
          <mxGeometry x="2160" y="790" width="120" height="60" as="geometry" />
        </mxCell>
        <mxCell id="Jr9y1pZiiyUqSEXO3oHp-41" value="摄像头" style="whiteSpace=wrap;html=1;rounded=1;" parent="1" vertex="1">
          <mxGeometry x="2160" y="870" width="120" height="60" as="geometry" />
        </mxCell>
        <mxCell id="Jr9y1pZiiyUqSEXO3oHp-43" value="lightning" style="whiteSpace=wrap;html=1;rounded=1;fillColor=#dae8fc;strokeColor=#6c8ebf;" parent="1" vertex="1">
          <mxGeometry x="2160" y="390" width="120" height="60" as="geometry" />
        </mxCell>
        <mxCell id="TKggMtITH45zLLJgQyqD-2" value="大功率pd" style="rounded=1;whiteSpace=wrap;html=1;" parent="1" vertex="1">
          <mxGeometry x="-120" y="460" width="120" height="60" as="geometry" />
        </mxCell>
        <mxCell id="-g2-h8CjWS85-cmmGlt7-2" value="" style="edgeStyle=orthogonalEdgeStyle;rounded=0;orthogonalLoop=1;jettySize=auto;html=1;" edge="1" parent="1" source="yzbpx14aAJEQ57A10Xds-1" target="-g2-h8CjWS85-cmmGlt7-1">
          <mxGeometry relative="1" as="geometry" />
        </mxCell>
        <mxCell id="-g2-h8CjWS85-cmmGlt7-6" value="" style="edgeStyle=orthogonalEdgeStyle;rounded=0;orthogonalLoop=1;jettySize=auto;html=1;" edge="1" parent="1" source="yzbpx14aAJEQ57A10Xds-1" target="-g2-h8CjWS85-cmmGlt7-5">
          <mxGeometry relative="1" as="geometry" />
        </mxCell>
        <mxCell id="yzbpx14aAJEQ57A10Xds-1" value="PUD" style="rounded=1;whiteSpace=wrap;html=1;fillColor=#fff2cc;strokeColor=#d6b656;" parent="1" vertex="1">
          <mxGeometry x="320" y="680" width="120" height="60" as="geometry" />
        </mxCell>
        <mxCell id="yzbpx14aAJEQ57A10Xds-4" value="&lt;span&gt;小号公牛&lt;/span&gt;" style="rounded=1;whiteSpace=wrap;html=1;fillColor=#e1d5e7;strokeColor=#9673a6;" parent="1" vertex="1">
          <mxGeometry x="620" y="370" width="120" height="60" as="geometry" />
        </mxCell>
        <mxCell id="-g2-h8CjWS85-cmmGlt7-38" style="edgeStyle=orthogonalEdgeStyle;rounded=0;orthogonalLoop=1;jettySize=auto;html=1;" edge="1" parent="1" source="yzbpx14aAJEQ57A10Xds-5" target="gy6kIXA5xTHW6ZrrGZsn-6">
          <mxGeometry relative="1" as="geometry">
            <Array as="points">
              <mxPoint x="1120" y="710" />
              <mxPoint x="1120" y="660" />
            </Array>
          </mxGeometry>
        </mxCell>
        <mxCell id="-g2-h8CjWS85-cmmGlt7-40" style="edgeStyle=orthogonalEdgeStyle;rounded=0;orthogonalLoop=1;jettySize=auto;html=1;" edge="1" parent="1" source="yzbpx14aAJEQ57A10Xds-5" target="gy6kIXA5xTHW6ZrrGZsn-8">
          <mxGeometry relative="1" as="geometry">
            <Array as="points">
              <mxPoint x="1120" y="710" />
              <mxPoint x="1120" y="570" />
            </Array>
          </mxGeometry>
        </mxCell>
        <mxCell id="-g2-h8CjWS85-cmmGlt7-41" style="edgeStyle=orthogonalEdgeStyle;rounded=0;orthogonalLoop=1;jettySize=auto;html=1;" edge="1" parent="1" source="yzbpx14aAJEQ57A10Xds-5" target="GsMayDk0nDa4LUjeAOZ0-37">
          <mxGeometry relative="1" as="geometry">
            <Array as="points">
              <mxPoint x="1120" y="710" />
              <mxPoint x="1120" y="750" />
            </Array>
          </mxGeometry>
        </mxCell>
        <mxCell id="-g2-h8CjWS85-cmmGlt7-70" value="" style="edgeStyle=orthogonalEdgeStyle;rounded=0;orthogonalLoop=1;jettySize=auto;html=1;" edge="1" parent="1" source="yzbpx14aAJEQ57A10Xds-5" target="-g2-h8CjWS85-cmmGlt7-69">
          <mxGeometry relative="1" as="geometry">
            <Array as="points">
              <mxPoint x="1120" y="710" />
              <mxPoint x="1120" y="460" />
            </Array>
          </mxGeometry>
        </mxCell>
        <mxCell id="yzbpx14aAJEQ57A10Xds-5" value="路由排插" style="rounded=1;whiteSpace=wrap;html=1;fillColor=#e1d5e7;strokeColor=#9673a6;" parent="1" vertex="1">
          <mxGeometry x="890" y="680" width="120" height="60" as="geometry" />
        </mxCell>
        <mxCell id="-g2-h8CjWS85-cmmGlt7-42" style="edgeStyle=orthogonalEdgeStyle;rounded=0;orthogonalLoop=1;jettySize=auto;html=1;fillColor=#dae8fc;strokeColor=#6c8ebf;" edge="1" parent="1" source="gy6kIXA5xTHW6ZrrGZsn-6" target="GsMayDk0nDa4LUjeAOZ0-39">
          <mxGeometry relative="1" as="geometry">
            <Array as="points">
              <mxPoint x="1360" y="660" />
              <mxPoint x="1360" y="1290" />
            </Array>
          </mxGeometry>
        </mxCell>
        <mxCell id="gy6kIXA5xTHW6ZrrGZsn-6" value="AX6" style="rounded=1;whiteSpace=wrap;html=1;" parent="1" vertex="1">
          <mxGeometry x="1150" y="630" width="120" height="60" as="geometry" />
        </mxCell>
        <mxCell id="gy6kIXA5xTHW6ZrrGZsn-8" value="光猫" style="rounded=1;whiteSpace=wrap;html=1;" parent="1" vertex="1">
          <mxGeometry x="1150" y="540" width="120" height="60" as="geometry" />
        </mxCell>
        <mxCell id="gy6kIXA5xTHW6ZrrGZsn-13" value="xbox elite2" style="whiteSpace=wrap;html=1;rounded=1;" parent="1" vertex="1">
          <mxGeometry x="-480" y="460" width="120" height="60" as="geometry" />
        </mxCell>
        <mxCell id="-g2-h8CjWS85-cmmGlt7-74" value="" style="edgeStyle=orthogonalEdgeStyle;rounded=0;orthogonalLoop=1;jettySize=auto;html=1;" edge="1" parent="1" source="gy6kIXA5xTHW6ZrrGZsn-15" target="-g2-h8CjWS85-cmmGlt7-73">
          <mxGeometry relative="1" as="geometry" />
        </mxCell>
        <mxCell id="gy6kIXA5xTHW6ZrrGZsn-15" value="待定" style="whiteSpace=wrap;html=1;rounded=1;" parent="1" vertex="1">
          <mxGeometry x="-80" y="920" width="120" height="60" as="geometry" />
        </mxCell>
        <mxCell id="gy6kIXA5xTHW6ZrrGZsn-22" value="KTC mini led" style="whiteSpace=wrap;html=1;rounded=1;strokeColor=#007FFF;" parent="1" vertex="1">
          <mxGeometry x="-480" y="880" width="120" height="60" as="geometry" />
        </mxCell>
        <mxCell id="GsMayDk0nDa4LUjeAOZ0-20" value="饮水机" style="whiteSpace=wrap;html=1;rounded=1;strokeColor=#FF9933;" parent="1" vertex="1">
          <mxGeometry x="340" y="270" width="120" height="60" as="geometry" />
        </mxCell>
        <mxCell id="XV4ISKZ8womVnDUNWxVR-2" style="edgeStyle=orthogonalEdgeStyle;rounded=0;orthogonalLoop=1;jettySize=auto;html=1;" parent="1" source="XV4ISKZ8womVnDUNWxVR-1" target="GsMayDk0nDa4LUjeAOZ0-51" edge="1">
          <mxGeometry relative="1" as="geometry" />
        </mxCell>
        <mxCell id="XV4ISKZ8womVnDUNWxVR-1" value="门口插座" style="rounded=1;whiteSpace=wrap;html=1;" parent="1" vertex="1">
          <mxGeometry x="-74" y="20" width="120" height="60" as="geometry" />
        </mxCell>
        <mxCell id="-g2-h8CjWS85-cmmGlt7-34" style="edgeStyle=orthogonalEdgeStyle;rounded=0;orthogonalLoop=1;jettySize=auto;html=1;" edge="1" parent="1" source="-g2-h8CjWS85-cmmGlt7-1" target="GsMayDk0nDa4LUjeAOZ0-2">
          <mxGeometry relative="1" as="geometry" />
        </mxCell>
        <mxCell id="-g2-h8CjWS85-cmmGlt7-51" value="" style="edgeStyle=orthogonalEdgeStyle;rounded=0;orthogonalLoop=1;jettySize=auto;html=1;" edge="1" parent="1" source="-g2-h8CjWS85-cmmGlt7-1" target="-g2-h8CjWS85-cmmGlt7-50">
          <mxGeometry relative="1" as="geometry" />
        </mxCell>
        <mxCell id="-g2-h8CjWS85-cmmGlt7-1" value="桌面电力" style="whiteSpace=wrap;html=1;rounded=1;" vertex="1" parent="1">
          <mxGeometry x="120" y="680" width="120" height="60" as="geometry" />
        </mxCell>
        <mxCell id="-g2-h8CjWS85-cmmGlt7-36" value="" style="edgeStyle=orthogonalEdgeStyle;rounded=0;orthogonalLoop=1;jettySize=auto;html=1;" edge="1" parent="1" source="-g2-h8CjWS85-cmmGlt7-5" target="-g2-h8CjWS85-cmmGlt7-35">
          <mxGeometry relative="1" as="geometry" />
        </mxCell>
        <mxCell id="-g2-h8CjWS85-cmmGlt7-43" style="edgeStyle=orthogonalEdgeStyle;rounded=0;orthogonalLoop=1;jettySize=auto;html=1;" edge="1" parent="1" source="-g2-h8CjWS85-cmmGlt7-5" target="GsMayDk0nDa4LUjeAOZ0-1">
          <mxGeometry relative="1" as="geometry">
            <Array as="points">
              <mxPoint x="580" y="630" />
              <mxPoint x="580" y="630" />
            </Array>
          </mxGeometry>
        </mxCell>
        <mxCell id="-g2-h8CjWS85-cmmGlt7-5" value="置物柜电力" style="whiteSpace=wrap;html=1;rounded=1;" vertex="1" parent="1">
          <mxGeometry x="520" y="680" width="120" height="60" as="geometry" />
        </mxCell>
        <mxCell id="-g2-h8CjWS85-cmmGlt7-31" value="" style="group" vertex="1" connectable="0" parent="1">
          <mxGeometry x="90" y="920" width="490" height="750" as="geometry" />
        </mxCell>
        <mxCell id="-g2-h8CjWS85-cmmGlt7-9" value="" style="rounded=0;whiteSpace=wrap;html=1;fillColor=none;comic=0;enumerate=0;container=0;" vertex="1" parent="-g2-h8CjWS85-cmmGlt7-31">
          <mxGeometry width="490" height="750" as="geometry" />
        </mxCell>
        <mxCell id="GsMayDk0nDa4LUjeAOZ0-5" value="新排插" style="whiteSpace=wrap;html=1;rounded=1;fillColor=#e1d5e7;strokeColor=#9673a6;comic=0;enumerate=0;" parent="-g2-h8CjWS85-cmmGlt7-31" vertex="1">
          <mxGeometry x="30" y="340" width="120" height="60" as="geometry" />
        </mxCell>
        <mxCell id="GsMayDk0nDa4LUjeAOZ0-30" value="PC" style="whiteSpace=wrap;html=1;rounded=1;strokeColor=#FF9933;comic=0;enumerate=0;" parent="-g2-h8CjWS85-cmmGlt7-31" vertex="1">
          <mxGeometry x="230" y="260" width="120" height="60" as="geometry" />
        </mxCell>
        <mxCell id="GsMayDk0nDa4LUjeAOZ0-31" value="" style="edgeStyle=orthogonalEdgeStyle;rounded=0;orthogonalLoop=1;jettySize=auto;html=1;entryX=0;entryY=0.5;entryDx=0;entryDy=0;comic=0;enumerate=0;" parent="-g2-h8CjWS85-cmmGlt7-31" source="GsMayDk0nDa4LUjeAOZ0-5" target="GsMayDk0nDa4LUjeAOZ0-30" edge="1">
          <mxGeometry relative="1" as="geometry">
            <Array as="points">
              <mxPoint x="190" y="370" />
              <mxPoint x="190" y="290" />
            </Array>
          </mxGeometry>
        </mxCell>
        <mxCell id="GsMayDk0nDa4LUjeAOZ0-39" value="交换机" style="whiteSpace=wrap;html=1;rounded=1;strokeColor=#FF9933;comic=0;enumerate=0;" parent="-g2-h8CjWS85-cmmGlt7-31" vertex="1">
          <mxGeometry x="230" y="340" width="120" height="60" as="geometry" />
        </mxCell>
        <mxCell id="gy6kIXA5xTHW6ZrrGZsn-4" style="edgeStyle=orthogonalEdgeStyle;rounded=0;orthogonalLoop=1;jettySize=auto;html=1;entryX=0;entryY=0.5;entryDx=0;entryDy=0;comic=0;enumerate=0;" parent="-g2-h8CjWS85-cmmGlt7-31" source="GsMayDk0nDa4LUjeAOZ0-5" target="GsMayDk0nDa4LUjeAOZ0-39" edge="1">
          <mxGeometry relative="1" as="geometry">
            <Array as="points">
              <mxPoint x="200" y="370" />
              <mxPoint x="200" y="370" />
            </Array>
          </mxGeometry>
        </mxCell>
        <mxCell id="GsMayDk0nDa4LUjeAOZ0-41" value="Thinkpad Hub&lt;br&gt;（135w）" style="whiteSpace=wrap;html=1;rounded=1;strokeColor=#007FFF;comic=0;enumerate=0;" parent="-g2-h8CjWS85-cmmGlt7-31" vertex="1">
          <mxGeometry x="230" y="20" width="120" height="60" as="geometry" />
        </mxCell>
        <mxCell id="saun846QMrdfV_qcI3-O-4" style="edgeStyle=orthogonalEdgeStyle;rounded=0;orthogonalLoop=1;jettySize=auto;html=1;comic=0;enumerate=0;" parent="-g2-h8CjWS85-cmmGlt7-31" source="GsMayDk0nDa4LUjeAOZ0-5" target="GsMayDk0nDa4LUjeAOZ0-41" edge="1">
          <mxGeometry relative="1" as="geometry">
            <Array as="points">
              <mxPoint x="190" y="370" />
              <mxPoint x="190" y="50" />
            </Array>
          </mxGeometry>
        </mxCell>
        <mxCell id="gy6kIXA5xTHW6ZrrGZsn-11" value="switch（小布丁）" style="rounded=1;whiteSpace=wrap;html=1;comic=0;enumerate=0;" parent="-g2-h8CjWS85-cmmGlt7-31" vertex="1">
          <mxGeometry x="230" y="420" width="120" height="60" as="geometry" />
        </mxCell>
        <mxCell id="-g2-h8CjWS85-cmmGlt7-13" style="edgeStyle=orthogonalEdgeStyle;rounded=0;orthogonalLoop=1;jettySize=auto;html=1;" edge="1" parent="-g2-h8CjWS85-cmmGlt7-31" source="GsMayDk0nDa4LUjeAOZ0-5" target="gy6kIXA5xTHW6ZrrGZsn-11">
          <mxGeometry relative="1" as="geometry">
            <Array as="points">
              <mxPoint x="190" y="370" />
              <mxPoint x="190" y="450" />
            </Array>
          </mxGeometry>
        </mxCell>
        <mxCell id="saun846QMrdfV_qcI3-O-2" value="wsye5070" style="whiteSpace=wrap;html=1;rounded=1;strokeColor=#FF9933;comic=0;enumerate=0;" parent="-g2-h8CjWS85-cmmGlt7-31" vertex="1">
          <mxGeometry x="230" y="180" width="120" height="60" as="geometry" />
        </mxCell>
        <mxCell id="saun846QMrdfV_qcI3-O-3" style="edgeStyle=orthogonalEdgeStyle;rounded=0;orthogonalLoop=1;jettySize=auto;html=1;entryX=0;entryY=0.5;entryDx=0;entryDy=0;comic=0;enumerate=0;" parent="-g2-h8CjWS85-cmmGlt7-31" source="GsMayDk0nDa4LUjeAOZ0-5" target="saun846QMrdfV_qcI3-O-2" edge="1">
          <mxGeometry relative="1" as="geometry" />
        </mxCell>
        <mxCell id="saun846QMrdfV_qcI3-O-5" value="音响" style="whiteSpace=wrap;html=1;rounded=1;strokeColor=#FF9933;comic=0;enumerate=0;" parent="-g2-h8CjWS85-cmmGlt7-31" vertex="1">
          <mxGeometry x="230" y="100" width="120" height="60" as="geometry" />
        </mxCell>
        <mxCell id="saun846QMrdfV_qcI3-O-6" style="edgeStyle=orthogonalEdgeStyle;rounded=0;orthogonalLoop=1;jettySize=auto;html=1;entryX=0;entryY=0.5;entryDx=0;entryDy=0;comic=0;enumerate=0;" parent="-g2-h8CjWS85-cmmGlt7-31" source="GsMayDk0nDa4LUjeAOZ0-5" target="saun846QMrdfV_qcI3-O-5" edge="1">
          <mxGeometry relative="1" as="geometry" />
        </mxCell>
        <mxCell id="-g2-h8CjWS85-cmmGlt7-10" value="设备柜" style="text;html=1;strokeColor=none;fillColor=none;align=center;verticalAlign=middle;whiteSpace=wrap;rounded=0;comic=0;enumerate=0;" vertex="1" parent="-g2-h8CjWS85-cmmGlt7-31">
          <mxGeometry x="30" y="675" width="60" height="30" as="geometry" />
        </mxCell>
        <mxCell id="-g2-h8CjWS85-cmmGlt7-23" value="N1" style="rounded=1;whiteSpace=wrap;html=1;comic=0;enumerate=0;" vertex="1" parent="-g2-h8CjWS85-cmmGlt7-31">
          <mxGeometry x="230" y="500" width="120" height="60" as="geometry" />
        </mxCell>
        <mxCell id="-g2-h8CjWS85-cmmGlt7-25" value="GPU算力设备" style="rounded=1;whiteSpace=wrap;html=1;comic=0;enumerate=0;" vertex="1" parent="-g2-h8CjWS85-cmmGlt7-31">
          <mxGeometry x="230" y="580" width="120" height="60" as="geometry" />
        </mxCell>
        <mxCell id="-g2-h8CjWS85-cmmGlt7-26" value="Airplay设备" style="rounded=1;whiteSpace=wrap;html=1;comic=0;enumerate=0;" vertex="1" parent="-g2-h8CjWS85-cmmGlt7-31">
          <mxGeometry x="230" y="660" width="120" height="60" as="geometry" />
        </mxCell>
        <mxCell id="-g2-h8CjWS85-cmmGlt7-24" style="edgeStyle=orthogonalEdgeStyle;rounded=0;orthogonalLoop=1;jettySize=auto;html=1;" edge="1" parent="-g2-h8CjWS85-cmmGlt7-31" source="GsMayDk0nDa4LUjeAOZ0-5" target="-g2-h8CjWS85-cmmGlt7-23">
          <mxGeometry relative="1" as="geometry">
            <Array as="points">
              <mxPoint x="190" y="370" />
              <mxPoint x="190" y="530" />
            </Array>
          </mxGeometry>
        </mxCell>
        <mxCell id="-g2-h8CjWS85-cmmGlt7-30" style="edgeStyle=orthogonalEdgeStyle;rounded=0;orthogonalLoop=1;jettySize=auto;html=1;exitX=0.5;exitY=1;exitDx=0;exitDy=0;" edge="1" parent="-g2-h8CjWS85-cmmGlt7-31" source="-g2-h8CjWS85-cmmGlt7-10" target="-g2-h8CjWS85-cmmGlt7-10">
          <mxGeometry relative="1" as="geometry" />
        </mxCell>
        <mxCell id="-g2-h8CjWS85-cmmGlt7-27" style="edgeStyle=orthogonalEdgeStyle;rounded=0;orthogonalLoop=1;jettySize=auto;html=1;" edge="1" parent="-g2-h8CjWS85-cmmGlt7-31" source="GsMayDk0nDa4LUjeAOZ0-5" target="-g2-h8CjWS85-cmmGlt7-25">
          <mxGeometry relative="1" as="geometry">
            <Array as="points">
              <mxPoint x="190" y="370" />
              <mxPoint x="190" y="610" />
            </Array>
          </mxGeometry>
        </mxCell>
        <mxCell id="-g2-h8CjWS85-cmmGlt7-28" style="edgeStyle=orthogonalEdgeStyle;rounded=0;orthogonalLoop=1;jettySize=auto;html=1;" edge="1" parent="-g2-h8CjWS85-cmmGlt7-31" source="GsMayDk0nDa4LUjeAOZ0-5" target="-g2-h8CjWS85-cmmGlt7-26">
          <mxGeometry relative="1" as="geometry">
            <Array as="points">
              <mxPoint x="190" y="370" />
              <mxPoint x="190" y="690" />
            </Array>
          </mxGeometry>
        </mxCell>
        <mxCell id="-g2-h8CjWS85-cmmGlt7-72" style="edgeStyle=orthogonalEdgeStyle;rounded=0;orthogonalLoop=1;jettySize=auto;html=1;" edge="1" parent="1" source="GsMayDk0nDa4LUjeAOZ0-2" target="gy6kIXA5xTHW6ZrrGZsn-15">
          <mxGeometry relative="1" as="geometry" />
        </mxCell>
        <mxCell id="GsMayDk0nDa4LUjeAOZ0-2" value="不断电" style="rounded=1;whiteSpace=wrap;html=1;comic=0;enumerate=0;fillColor=#d5e8d4;strokeColor=#82b366;" parent="1" vertex="1">
          <mxGeometry x="120" y="820" width="120" height="60" as="geometry" />
        </mxCell>
        <mxCell id="GsMayDk0nDa4LUjeAOZ0-6" value="" style="edgeStyle=orthogonalEdgeStyle;rounded=0;orthogonalLoop=1;jettySize=auto;html=1;comic=0;enumerate=0;" parent="1" source="GsMayDk0nDa4LUjeAOZ0-2" target="GsMayDk0nDa4LUjeAOZ0-5" edge="1">
          <mxGeometry relative="1" as="geometry" />
        </mxCell>
        <mxCell id="-g2-h8CjWS85-cmmGlt7-37" style="edgeStyle=orthogonalEdgeStyle;rounded=0;orthogonalLoop=1;jettySize=auto;html=1;" edge="1" parent="1" source="-g2-h8CjWS85-cmmGlt7-35" target="yzbpx14aAJEQ57A10Xds-5">
          <mxGeometry relative="1" as="geometry" />
        </mxCell>
        <mxCell id="-g2-h8CjWS85-cmmGlt7-35" value="不断电" style="whiteSpace=wrap;html=1;rounded=1;fillColor=#d5e8d4;strokeColor=#82b366;" vertex="1" parent="1">
          <mxGeometry x="700" y="680" width="120" height="60" as="geometry" />
        </mxCell>
        <mxCell id="-g2-h8CjWS85-cmmGlt7-52" style="edgeStyle=orthogonalEdgeStyle;rounded=0;orthogonalLoop=1;jettySize=auto;html=1;" edge="1" parent="1" source="-g2-h8CjWS85-cmmGlt7-50" target="GsMayDk0nDa4LUjeAOZ0-9">
          <mxGeometry relative="1" as="geometry" />
        </mxCell>
        <mxCell id="-g2-h8CjWS85-cmmGlt7-60" value="" style="edgeStyle=orthogonalEdgeStyle;rounded=0;orthogonalLoop=1;jettySize=auto;html=1;" edge="1" parent="1" source="-g2-h8CjWS85-cmmGlt7-50" target="-g2-h8CjWS85-cmmGlt7-59">
          <mxGeometry relative="1" as="geometry">
            <Array as="points">
              <mxPoint x="-120" y="710" />
              <mxPoint x="-120" y="600" />
            </Array>
          </mxGeometry>
        </mxCell>
        <mxCell id="-g2-h8CjWS85-cmmGlt7-50" value="断电" style="whiteSpace=wrap;html=1;rounded=1;fillColor=#d5e8d4;strokeColor=#82b366;" vertex="1" parent="1">
          <mxGeometry x="-80" y="680" width="120" height="60" as="geometry" />
        </mxCell>
        <mxCell id="-g2-h8CjWS85-cmmGlt7-63" value="" style="edgeStyle=orthogonalEdgeStyle;rounded=0;orthogonalLoop=1;jettySize=auto;html=1;" edge="1" parent="1" source="-g2-h8CjWS85-cmmGlt7-59" target="-g2-h8CjWS85-cmmGlt7-62">
          <mxGeometry relative="1" as="geometry" />
        </mxCell>
        <mxCell id="-g2-h8CjWS85-cmmGlt7-71" style="edgeStyle=orthogonalEdgeStyle;rounded=0;orthogonalLoop=1;jettySize=auto;html=1;" edge="1" parent="1" source="-g2-h8CjWS85-cmmGlt7-59" target="TKggMtITH45zLLJgQyqD-2">
          <mxGeometry relative="1" as="geometry">
            <Array as="points">
              <mxPoint x="-220" y="550" />
              <mxPoint x="-60" y="550" />
            </Array>
          </mxGeometry>
        </mxCell>
        <mxCell id="-g2-h8CjWS85-cmmGlt7-59" value="未定" style="whiteSpace=wrap;html=1;rounded=1;" vertex="1" parent="1">
          <mxGeometry x="-280" y="570" width="120" height="60" as="geometry" />
        </mxCell>
        <mxCell id="-g2-h8CjWS85-cmmGlt7-65" value="" style="edgeStyle=orthogonalEdgeStyle;rounded=0;orthogonalLoop=1;jettySize=auto;html=1;" edge="1" parent="1" source="-g2-h8CjWS85-cmmGlt7-62" target="-g2-h8CjWS85-cmmGlt7-64">
          <mxGeometry relative="1" as="geometry">
            <Array as="points">
              <mxPoint x="-320" y="490" />
              <mxPoint x="-320" y="390" />
            </Array>
          </mxGeometry>
        </mxCell>
        <mxCell id="-g2-h8CjWS85-cmmGlt7-68" style="edgeStyle=orthogonalEdgeStyle;rounded=0;orthogonalLoop=1;jettySize=auto;html=1;" edge="1" parent="1" source="-g2-h8CjWS85-cmmGlt7-62" target="gy6kIXA5xTHW6ZrrGZsn-13">
          <mxGeometry relative="1" as="geometry" />
        </mxCell>
        <mxCell id="-g2-h8CjWS85-cmmGlt7-62" value="usb供电口" style="whiteSpace=wrap;html=1;rounded=1;" vertex="1" parent="1">
          <mxGeometry x="-280" y="460" width="120" height="60" as="geometry" />
        </mxCell>
        <mxCell id="-g2-h8CjWS85-cmmGlt7-64" value="设备柜灯" style="whiteSpace=wrap;html=1;rounded=1;" vertex="1" parent="1">
          <mxGeometry x="-480" y="360" width="120" height="60" as="geometry" />
        </mxCell>
        <mxCell id="-g2-h8CjWS85-cmmGlt7-69" value="访客ap" style="rounded=1;whiteSpace=wrap;html=1;" vertex="1" parent="1">
          <mxGeometry x="1150" y="450" width="120" height="60" as="geometry" />
        </mxCell>
        <mxCell id="-g2-h8CjWS85-cmmGlt7-73" value="无线充" style="whiteSpace=wrap;html=1;rounded=1;" vertex="1" parent="1">
          <mxGeometry x="-80" y="1060" width="120" height="60" as="geometry" />
        </mxCell>
      </root>
    </mxGraphModel>
  </diagram>
</mxfile>
